<?xml version="1.0" standalone="no"?>
<!DOCTYPE svg PUBLIC "-//W3C//DTD SVG 20010904//EN"
 "http://www.w3.org/TR/2001/REC-SVG-20010904/DTD/svg10.dtd">
<svg version="1.0" xmlns="http://www.w3.org/2000/svg"
 width="634.000000pt" height="462.000000pt" viewBox="0 0 634.000000 462.000000"
 preserveAspectRatio="xMidYMid meet">

<g transform="translate(0.000000,462.000000) scale(0.100000,-0.100000)"
fill="#000000" stroke="none">
<path d="M3060 3474 c-450 -56 -849 -326 -1053 -713 -174 -329 -209 -691 -102
-1046 27 -89 81 -215 93 -215 12 -1 292 41 350 52 l53 10 -20 31 c-306 496
-125 1140 394 1397 158 79 228 94 430 95 190 0 252 -12 408 -81 257 -113 464
-357 542 -640 22 -81 31 -313 15 -411 -14 -92 -69 -245 -116 -326 -19 -32 -34
-60 -34 -62 0 -5 27 -10 228 -41 148 -23 175 -25 183 -13 25 39 90 227 111
319 30 139 33 418 5 548 -57 267 -176 495 -354 678 -202 210 -437 340 -721
399 -75 16 -339 28 -412 19z"/>
<path d="M3030 2960 c-126 -27 -252 -84 -340 -152 -61 -47 -152 -145 -197
-211 -54 -79 -107 -193 -94 -202 11 -6 93 88 148 170 50 74 171 189 246 234
145 86 267 115 452 108 186 -7 311 -51 455 -162 71 -55 109 -97 213 -238 83
-112 103 -134 113 -124 10 10 -49 134 -102 214 -92 139 -251 266 -404 324
-151 58 -337 72 -490 39z"/>
<path d="M3328 2795 c-19 -11 -31 -29 -42 -67 -28 -98 -276 -1100 -276 -1115
0 -13 12 -15 69 -11 39 2 72 6 75 9 12 11 286 1125 281 1140 -14 43 -68 65
-107 44z"/>
<path d="M2679 2613 c-35 -38 -279 -325 -353 -416 -55 -67 -52 -88 22 -178 33
-41 126 -153 205 -249 l143 -175 49 0 c42 0 51 4 64 26 18 32 10 65 -26 104
-37 39 -317 384 -321 394 -2 5 76 101 173 215 103 121 178 218 181 234 8 40
-28 82 -70 82 -24 0 -41 -9 -67 -37z"/>
<path d="M3620 2628 c-40 -43 -29 -68 107 -236 70 -86 151 -186 181 -221 46
-55 51 -65 39 -80 -7 -9 -76 -90 -153 -181 -77 -91 -152 -180 -167 -198 -52
-63 -29 -122 47 -122 l43 0 204 240 c124 145 205 249 207 264 4 35 -2 46 -143
218 -70 84 -154 187 -187 228 -34 41 -70 83 -81 93 -27 24 -72 22 -97 -5z"/>
<path d="M2396 1830 c10 -41 73 -162 110 -213 30 -42 38 -47 62 -41 36 9 40
13 22 27 -9 7 -44 50 -77 97 -34 47 -76 101 -93 120 -28 32 -30 33 -24 10z"/>
<path d="M3993 1817 c-16 -18 -54 -69 -85 -113 -32 -45 -64 -87 -73 -94 -24
-20 -18 -30 19 -30 38 0 48 10 104 110 30 55 75 160 68 160 -2 0 -17 -15 -33
-33z"/>
<path d="M2835 1570 c-278 -16 -716 -68 -898 -106 -38 -8 -70 -14 -72 -14 -9
0 -185 -270 -185 -283 0 -18 275 -201 288 -193 6 3 36 10 69 15 32 5 132 20
223 34 327 51 491 61 945 62 480 0 684 -15 1076 -81 81 -13 157 -24 170 -24
24 0 288 168 289 184 0 5 -41 71 -91 147 l-91 137 -84 16 c-173 35 -498 76
-744 96 -190 15 -705 20 -895 10z m164 -146 c24 -49 63 -131 87 -181 l43 -93
-27 0 c-24 0 -32 9 -60 65 -31 64 -32 65 -74 67 l-43 1 38 4 c20 2 37 6 37 8
0 17 -56 115 -64 112 -6 -2 -19 -30 -29 -63 -11 -32 -25 -72 -32 -89 -7 -16
-16 -49 -20 -72 -6 -37 -10 -43 -31 -43 -13 0 -24 2 -24 5 0 4 109 315 126
358 11 31 27 13 73 -79z m351 -34 c0 -16 -7 -20 -35 -20 -24 0 -44 -9 -66 -28
-30 -27 -32 -34 -37 -110 -4 -78 -6 -82 -28 -82 -24 0 -24 1 -24 113 0 112 7
137 37 137 8 0 13 -13 13 -35 0 -39 14 -46 30 -14 13 24 68 59 93 59 10 0 17
-8 17 -20z m222 -1 c24 -13 48 -39 48 -52 0 -7 -9 -18 -20 -24 -17 -11 -21 -9
-36 23 -10 20 -28 41 -41 47 -12 5 -23 14 -23 19 0 9 44 1 72 -13z m-134 -19
c-27 -27 -29 -34 -23 -73 10 -59 39 -123 63 -136 48 -26 112 0 112 45 0 27 15
32 24 9 14 -38 -38 -75 -105 -75 -97 0 -145 52 -137 148 4 47 10 60 37 84 43
38 68 37 29 -2z"/>
<path d="M2760 1059 c-227 -16 -340 -31 -340 -46 0 -30 210 -142 360 -192 149
-50 253 -65 435 -65 182 1 299 20 458 78 144 52 327 153 327 180 0 13 -121 28
-370 46 -155 11 -714 11 -870 -1z"/>
</g>
</svg>
